Coordinates
version=1
nRows=16
nColumns=40
inDegrees=yes

Units are S.I. units (second, meters, Newtons, ...)
If the header above contains a line with 'inDegrees', this indicates whether rotational values are in degrees (yes) or radians (no).

endheader
time	pelvis_tilt	pelvis_list	pelvis_rotation	pelvis_tx	pelvis_ty	pelvis_tz	hip_flexion_r	hip_adduction_r	hip_rotation_r	knee_angle_r	knee_angle_r_beta	ankle_angle_r	subtalar_angle_r	mtp_angle_r	hip_flexion_l	hip_adduction_l	hip_rotation_l	knee_angle_l	knee_angle_l_beta	ankle_angle_l	subtalar_angle_l	mtp_angle_l	lumbar_extension	lumbar_bending	lumbar_rotation	arm_flex_r	arm_add_r	arm_rot_r	elbow_flex_r	pro_sup_r	wrist_flex_r	wrist_dev_r	arm_flex_l	arm_add_l	arm_rot_l	elbow_flex_l	pro_sup_l	wrist_flex_l	wrist_dev_l
     17.94500000	     30.20931558	     -9.08093300	    176.53830685	      0.34633734	      0.80389976	     -0.59020886	     76.62208015	    -10.05322101	      3.88443573	     57.84762596	      1.00963154	     13.83484563	      0.00000000	      0.00000000	     70.86960734	     -4.22396091	    -10.21818806	     55.17411826	      0.96297003	     17.15214624	      0.00000000	      0.00000000	    -47.06608604	     -5.11110311	     -5.16610380	     61.47698329	    -13.72835985	     45.50353940	      9.56067751	      9.96016178	      0.00000000	      0.00000000	     68.12881601	    -15.79430373	     43.62868161	     13.52166512	     84.62708536	      0.00000000	      0.00000000
     17.95000000	     30.15007316	     -9.08593337	    176.44749644	      0.34617655	      0.80546563	     -0.59013632	     76.32626261	    -10.01180570	      3.83483810	     57.43121915	      1.00236387	     13.64710527	      0.00000000	      0.00000000	     70.58363603	     -4.24013910	    -10.29352105	     54.80328213	      0.95649771	     16.98025955	      0.00000000	      0.00000000	    -47.06059146	     -5.15638218	     -5.11443822	     61.42603267	    -13.74329455	     45.45508965	      9.53294242	     10.20772114	      0.00000000	      0.00000000	     68.07362416	    -15.86893693	     44.07907738	     13.63622842	     84.53076244	      0.00000000	      0.00000000
     17.95500000	     30.02843363	     -8.97336892	    176.46272747	      0.34586586	      0.80721157	     -0.58983894	     75.90402235	    -10.07016667	      3.61524066	     57.02193274	      0.99522047	     13.48941289	      0.00000000	      0.00000000	     70.23354810	     -4.18273514	    -10.21499350	     54.41381139	      0.94970017	     16.84069899	      0.00000000	      0.00000000	    -47.12861958	     -5.01333517	     -5.03094527	     61.40744062	    -13.75355681	     45.07763866	      9.35604187	     11.34716859	      0.00000000	      0.00000000	     68.01021056	    -15.85066520	     44.35131617	     13.67776940	     84.35165320	      0.00000000	      0.00000000
     17.96000000	     30.00332583	     -8.79870417	    176.54802406	      0.34579294	      0.80877560	     -0.58947195	     75.56437186	    -10.14469099	      3.32419445	     56.59790744	      0.98781983	     13.32482797	      0.00000000	      0.00000000	     70.02019503	     -4.07588648	     -9.97727282	     54.00319801	      0.94253361	     16.60988994	      0.00000000	      0.00000000	    -47.09474041	     -4.78050599	     -4.96295290	     61.44412867	    -13.70439803	     44.56670387	      9.09275956	     12.66343369	      0.00000000	      0.00000000	     67.91759070	    -15.87965410	     44.45590003	     13.80423509	     84.15964141	      0.00000000	      0.00000000
     17.96500000	     30.02430812	     -8.81044921	    176.26857998	      0.34576775	      0.81003988	     -0.58976690	     75.37302055	     -9.86647448	      3.38616105	     56.15882454	      0.98015639	     13.08909209	      0.00000000	      0.00000000	     69.84395499	     -4.30460400	    -10.12296954	     53.71578876	      0.93751737	     16.50784912	      0.00000000	      0.00000000	    -46.95937978	     -4.97643693	     -4.76377462	     61.24509333	    -13.88595553	     45.10821653	      9.44608154	     11.65433244	      0.00000000	      0.00000000	     67.84499549	    -15.77320227	     44.19258251	     13.63734643	     84.71174733	      0.00000000	      0.00000000
     17.97000000	     29.89106363	     -8.92262181	    176.19388606	      0.34544810	      0.81177339	     -0.58957345	     75.02733322	     -9.91977858	      3.40970653	     55.75766846	      0.97315490	     12.90241509	      0.00000000	      0.00000000	     69.43568031	     -4.24361815	    -10.34830497	     53.29547016	      0.93018143	     16.32748030	      0.00000000	      0.00000000	    -47.02751877	     -5.08110867	     -4.81394552	     61.21661008	    -13.84838863	     44.92362851	      9.35918266	     11.73669771	      0.00000000	      0.00000000	     67.77434425	    -15.81620089	     44.42780828	     13.74149727	     84.39171981	      0.00000000	      0.00000000
     17.97500000	     29.80927278	     -8.84265648	    176.12996751	      0.34519256	      0.81335503	     -0.58944509	     74.66563787	     -9.88031811	      3.26709540	     55.33972527	      0.96586041	     12.75065486	      0.00000000	      0.00000000	     69.14052553	     -4.25206715	    -10.30038098	     52.93847153	      0.92395063	     16.17808889	      0.00000000	      0.00000000	    -47.03185834	     -5.02660492	     -4.72057414	     61.17273175	    -13.85875408	     44.67565515	      9.27386731	     12.46405426	      0.00000000	      0.00000000	     67.68849649	    -15.80595601	     44.46442704	     13.73658195	     84.36929580	      0.00000000	      0.00000000
     17.98000000	     29.91013631	     -8.70264226	    176.10757228	      0.34528776	      0.81451924	     -0.58924781	     74.48782936	     -9.80769759	      3.08106819	     54.89635333	      0.95812211	     12.57583326	      0.00000000	      0.00000000	     69.07727048	     -4.27116494	    -10.13063447	     52.58634869	      0.91780493	     16.01866224	      0.00000000	      0.00000000	    -46.81881816	     -4.90384491	     -4.60551200	     61.10812548	    -13.86495613	     44.68922185	      9.19062138	     12.97455660	      0.00000000	      0.00000000	     67.51898068	    -15.88710195	     44.57119156	     13.89159297	     84.41184358	      0.00000000	      0.00000000
     17.98500000	     29.76918241	     -8.75140300	    175.88221515	      0.34495900	      0.81614278	     -0.58942042	     74.11529540	     -9.65829703	      3.12433592	     54.47020709	      0.95068446	     12.40061781	      0.00000000	      0.00000000	     68.68318395	     -4.38498784	    -10.29731989	     52.23841537	      0.91173234	     15.91521540	      0.00000000	      0.00000000	    -46.85760472	     -5.08451925	     -4.46933266	     60.99138807	    -13.94230725	     44.78811406	      9.31922574	     12.37882380	      0.00000000	      0.00000000	     67.47803012	    -15.79470184	     44.51233399	     13.78517648	     84.80016599	      0.00000000	      0.00000000
     17.99000000	     29.62225380	     -8.94553930	    175.90778996	      0.34457482	      0.81779853	     -0.58899406	     73.81292864	     -9.86486313	      3.19299572	     54.15471704	      0.94517812	     12.23506217	      0.00000000	      0.00000000	     68.23760323	     -4.16127598	    -10.54501649	     51.74954692	      0.90319998	     15.75408181	      0.00000000	      0.00000000	    -46.92153845	     -5.18592149	     -4.67104881	     60.92215255	    -13.91179691	     44.74715517	      9.21362396	     12.93950636	      0.00000000	      0.00000000	     67.37658338	    -15.86501801	     44.82238676	     13.87735762	     84.14401824	      0.00000000	      0.00000000
     17.99500000	     29.71118322	     -8.75169522	    175.73976194	      0.34466230	      0.81896617	     -0.58915350	     73.58838266	     -9.60088580	      3.01270848	     53.65533103	      0.93646219	     12.02646748	      0.00000000	      0.00000000	     68.17710742	     -4.38672194	    -10.43925731	     51.47817297	      0.89846361	     15.62322121	      0.00000000	      0.00000000	    -46.69529616	     -5.13840616	     -4.37677353	     60.78301088	    -14.01290552	     44.95543859	      9.52521438	     10.94745356	      0.00000000	      0.00000000	     67.28213103	    -15.73028535	     44.59629315	     13.69577539	     84.64310431	      0.00000000	      0.00000000
     18.00000000	     29.61413362	     -8.84348470	    175.50709326	      0.34446076	      0.82051755	     -0.58940752	     73.27798512	     -9.43676556	      3.11723603	     53.20625078	      0.92862426	     11.79259252	      0.00000000	      0.00000000	     67.82630336	     -4.50462598	    -10.66041505	     51.11402560	      0.89210804	     15.46298758	      0.00000000	      0.00000000	    -46.68041540	     -5.36268509	     -4.27385757	     60.72986274	    -13.93340802	     44.68162446	      9.27869233	     11.52655192	      0.00000000	      0.00000000	     67.17990869	    -15.66853838	     44.40446139	     13.68599226	     84.12242666	      0.00000000	      0.00000000
     18.00500000	     29.48457382	     -8.91464960	    175.40506095	      0.34400678	      0.82212558	     -0.58926824	     72.92160688	     -9.47329288	      3.06057785	     52.80911927	      0.92169301	     11.62233665	      0.00000000	      0.00000000	     67.43073243	     -4.47070938	    -10.80069043	     50.72126979	      0.88525316	     15.35494759	      0.00000000	      0.00000000	    -46.67710499	     -5.45771036	     -4.30143017	     60.65720294	    -13.84284857	     44.45043319	      9.13828180	     11.85580552	      0.00000000	      0.00000000	     67.03216607	    -15.63866505	     44.35262538	     13.56941932	     84.08150003	      0.00000000	      0.00000000
     18.01000000	     29.35061831	     -8.88862910	    175.66862435	      0.34366633	      0.82390482	     -0.58839849	     72.52518357	     -9.82950666	      2.84542753	     52.47346114	      0.91583467	     11.53673282	      0.00000000	      0.00000000	     67.04400828	     -4.09322093	    -10.67103321	     50.20709937	      0.87627919	     15.09515612	      0.00000000	      0.00000000	    -46.75710428	     -5.19645728	     -4.46489741	     60.56217525	    -13.98868179	     44.54312611	      9.24355004	     12.32956416	      0.00000000	      0.00000000	     66.95131745	    -15.79480335	     45.09579524	     13.89191514	     83.88237065	      0.00000000	      0.00000000
     18.01500000	     29.26777948	     -8.86340825	    175.17882200	      0.34338978	      0.82529254	     -0.58923293	     72.17809252	     -9.33249654	      2.93902715	     51.96774817	      0.90700831	     11.38643055	      0.00000000	      0.00000000	     66.73793529	     -4.62339351	    -11.09727605	     50.00848816	      0.87281277	     15.11228009	      0.00000000	      0.00000000	    -46.69687161	     -5.50949157	     -4.07916723	     60.33503077	    -14.10481874	     44.14804509	      9.50669097	     13.10779036	      0.00000000	      0.00000000	     66.62647916	    -15.89247597	     44.66526185	     14.35702965	     83.09454247	      0.00000000	      0.00000000
     18.02000000	     29.32433904	     -8.87087805	    175.23000930	      0.34351329	      0.82688238	     -0.58883945	     71.98403646	     -9.40299706	      2.88757779	     51.48889009	      0.89865066	     10.98975809	      0.00000000	      0.00000000	     66.52972368	     -4.41435140	    -10.90575179	     49.43420381	      0.86278962	     14.77660804	      0.00000000	      0.00000000	    -46.51802460	     -5.45613608	     -4.19099267	     60.43979893	    -13.79390275	     44.12798836	      8.93616904	     12.81947796	      0.00000000	      0.00000000	     66.71098759	    -15.72755087	     44.76667637	     13.68980499	     83.92661821	      0.00000000	      0.00000000
